<mxfile host="Electron" agent="Mozilla/5.0 (Macintosh; Intel Mac OS X 10_15_7) AppleWebKit/537.36 (KHTML, like Gecko) draw.io/27.0.5 Chrome/134.0.6998.205 Electron/35.3.0 Safari/537.36" version="27.0.5">
  <diagram name="第 1 页" id="FSbXBvm-XzMzfJquyADE">
    <mxGraphModel dx="1623" dy="1018" grid="1" gridSize="10" guides="1" tooltips="1" connect="1" arrows="1" fold="1" page="1" pageScale="1" pageWidth="827" pageHeight="1169" math="0" shadow="0">
      <root>
        <mxCell id="0" />
        <mxCell id="1" parent="0" />
        <mxCell id="KjZQPtOGRM4tuQie00Dk-1" value="大学选专业" style="ellipse;whiteSpace=wrap;html=1;align=center;newEdgeStyle={&quot;edgeStyle&quot;:&quot;entityRelationEdgeStyle&quot;,&quot;startArrow&quot;:&quot;none&quot;,&quot;endArrow&quot;:&quot;none&quot;,&quot;segment&quot;:10,&quot;curved&quot;:1,&quot;sourcePerimeterSpacing&quot;:0,&quot;targetPerimeterSpacing&quot;:0};treeFolding=1;treeMoving=1;" vertex="1" parent="1">
          <mxGeometry x="140" y="620" width="100" height="40" as="geometry" />
        </mxCell>
        <mxCell id="KjZQPtOGRM4tuQie00Dk-2" value="原则" style="whiteSpace=wrap;html=1;rounded=1;arcSize=50;align=center;verticalAlign=middle;strokeWidth=1;autosize=1;spacing=4;treeFolding=1;treeMoving=1;newEdgeStyle={&quot;edgeStyle&quot;:&quot;entityRelationEdgeStyle&quot;,&quot;startArrow&quot;:&quot;none&quot;,&quot;endArrow&quot;:&quot;none&quot;,&quot;segment&quot;:10,&quot;curved&quot;:1,&quot;sourcePerimeterSpacing&quot;:0,&quot;targetPerimeterSpacing&quot;:0};" vertex="1" parent="1">
          <mxGeometry x="415" y="200" width="70" height="30" as="geometry" />
        </mxCell>
        <mxCell id="KjZQPtOGRM4tuQie00Dk-3" value="" style="edgeStyle=entityRelationEdgeStyle;startArrow=none;endArrow=none;segment=10;curved=1;sourcePerimeterSpacing=0;targetPerimeterSpacing=0;rounded=0;exitX=1;exitY=0.5;exitDx=0;exitDy=0;" edge="1" target="KjZQPtOGRM4tuQie00Dk-2" parent="1" source="KjZQPtOGRM4tuQie00Dk-1">
          <mxGeometry relative="1" as="geometry">
            <mxPoint x="430" y="280" as="sourcePoint" />
          </mxGeometry>
        </mxCell>
        <mxCell id="KjZQPtOGRM4tuQie00Dk-7" value="" style="edgeStyle=entityRelationEdgeStyle;rounded=0;orthogonalLoop=1;jettySize=auto;html=1;startArrow=none;endArrow=none;segment=10;curved=1;sourcePerimeterSpacing=0;targetPerimeterSpacing=0;exitX=1;exitY=0.5;exitDx=0;exitDy=0;" edge="1" parent="1" source="KjZQPtOGRM4tuQie00Dk-2" target="KjZQPtOGRM4tuQie00Dk-6">
          <mxGeometry relative="1" as="geometry" />
        </mxCell>
        <mxCell id="KjZQPtOGRM4tuQie00Dk-4" value="绝大多数人都不配选择喜欢的专业，除非家里有1000万" style="whiteSpace=wrap;html=1;shape=partialRectangle;top=0;left=0;bottom=1;right=0;points=[[0,1],[1,1]];fillColor=none;align=center;verticalAlign=bottom;routingCenterY=0.5;snapToPoint=1;recursiveResize=0;autosize=1;treeFolding=1;treeMoving=1;newEdgeStyle={&quot;edgeStyle&quot;:&quot;entityRelationEdgeStyle&quot;,&quot;startArrow&quot;:&quot;none&quot;,&quot;endArrow&quot;:&quot;none&quot;,&quot;segment&quot;:10,&quot;curved&quot;:1,&quot;sourcePerimeterSpacing&quot;:0,&quot;targetPerimeterSpacing&quot;:0};" vertex="1" parent="1">
          <mxGeometry x="520" y="130" width="330" height="30" as="geometry" />
        </mxCell>
        <mxCell id="KjZQPtOGRM4tuQie00Dk-5" value="" style="edgeStyle=entityRelationEdgeStyle;startArrow=none;endArrow=none;segment=10;curved=1;sourcePerimeterSpacing=0;targetPerimeterSpacing=0;rounded=0;exitX=1;exitY=0.5;exitDx=0;exitDy=0;" edge="1" target="KjZQPtOGRM4tuQie00Dk-4" parent="1" source="KjZQPtOGRM4tuQie00Dk-2">
          <mxGeometry relative="1" as="geometry">
            <mxPoint x="490" y="220" as="sourcePoint" />
            <Array as="points">
              <mxPoint x="490" y="210" />
            </Array>
          </mxGeometry>
        </mxCell>
        <mxCell id="KjZQPtOGRM4tuQie00Dk-9" value="" style="edgeStyle=entityRelationEdgeStyle;rounded=0;orthogonalLoop=1;jettySize=auto;html=1;startArrow=none;endArrow=none;segment=10;curved=1;sourcePerimeterSpacing=0;targetPerimeterSpacing=0;exitX=1;exitY=0.5;exitDx=0;exitDy=0;" edge="1" parent="1" source="KjZQPtOGRM4tuQie00Dk-2" target="KjZQPtOGRM4tuQie00Dk-8">
          <mxGeometry relative="1" as="geometry" />
        </mxCell>
        <mxCell id="KjZQPtOGRM4tuQie00Dk-6" value="学CS干程序员，就是一门手艺，手艺无论高低，无论有没有天赋，都可以有饭吃" style="whiteSpace=wrap;html=1;shape=partialRectangle;top=0;left=0;bottom=1;right=0;points=[[0,1],[1,1]];fillColor=none;align=center;verticalAlign=bottom;routingCenterY=0.5;snapToPoint=1;recursiveResize=0;autosize=1;treeFolding=1;treeMoving=1;newEdgeStyle={&quot;edgeStyle&quot;:&quot;entityRelationEdgeStyle&quot;,&quot;startArrow&quot;:&quot;none&quot;,&quot;endArrow&quot;:&quot;none&quot;,&quot;segment&quot;:10,&quot;curved&quot;:1,&quot;sourcePerimeterSpacing&quot;:0,&quot;targetPerimeterSpacing&quot;:0};" vertex="1" parent="1">
          <mxGeometry x="520" y="170" width="470" height="30" as="geometry" />
        </mxCell>
        <mxCell id="KjZQPtOGRM4tuQie00Dk-11" value="" style="edgeStyle=entityRelationEdgeStyle;rounded=0;orthogonalLoop=1;jettySize=auto;html=1;startArrow=none;endArrow=none;segment=10;curved=1;sourcePerimeterSpacing=0;targetPerimeterSpacing=0;exitX=1;exitY=0.5;exitDx=0;exitDy=0;" edge="1" parent="1" source="KjZQPtOGRM4tuQie00Dk-2" target="KjZQPtOGRM4tuQie00Dk-10">
          <mxGeometry relative="1" as="geometry">
            <mxPoint x="488.7878787878788" y="220" as="sourcePoint" />
          </mxGeometry>
        </mxCell>
        <mxCell id="KjZQPtOGRM4tuQie00Dk-8" value="在所有手艺里，学CS干程序员，是唯一一个可以坐办公室，也是唯一一个有职业规划，上升途径，可创业，轻资产，天花板极高" style="whiteSpace=wrap;html=1;shape=partialRectangle;top=0;left=0;bottom=1;right=0;points=[[0,1],[1,1]];fillColor=none;align=center;verticalAlign=bottom;routingCenterY=0.5;snapToPoint=1;recursiveResize=0;autosize=1;treeFolding=1;treeMoving=1;newEdgeStyle={&quot;edgeStyle&quot;:&quot;entityRelationEdgeStyle&quot;,&quot;startArrow&quot;:&quot;none&quot;,&quot;endArrow&quot;:&quot;none&quot;,&quot;segment&quot;:10,&quot;curved&quot;:1,&quot;sourcePerimeterSpacing&quot;:0,&quot;targetPerimeterSpacing&quot;:0};" vertex="1" parent="1">
          <mxGeometry x="520" y="210" width="720" height="30" as="geometry" />
        </mxCell>
        <mxCell id="KjZQPtOGRM4tuQie00Dk-10" value="HR时间很宝贵，任何HR看不懂的简历，都会被直接拒掉，被系统的算法直接过滤，人生要注意投入产出比，投入的不仅仅包括金钱，更多的是时间，" style="whiteSpace=wrap;html=1;shape=partialRectangle;top=0;left=0;bottom=1;right=0;points=[[0,1],[1,1]];fillColor=none;align=center;verticalAlign=bottom;routingCenterY=0.5;snapToPoint=1;recursiveResize=0;autosize=1;treeFolding=1;treeMoving=1;newEdgeStyle={&quot;edgeStyle&quot;:&quot;entityRelationEdgeStyle&quot;,&quot;startArrow&quot;:&quot;none&quot;,&quot;endArrow&quot;:&quot;none&quot;,&quot;segment&quot;:10,&quot;curved&quot;:1,&quot;sourcePerimeterSpacing&quot;:0,&quot;targetPerimeterSpacing&quot;:0};" vertex="1" parent="1">
          <mxGeometry x="520" y="250" width="830" height="30" as="geometry" />
        </mxCell>
        <mxCell id="KjZQPtOGRM4tuQie00Dk-12" value="HR关" style="whiteSpace=wrap;html=1;rounded=1;arcSize=50;align=center;verticalAlign=middle;strokeWidth=1;autosize=1;spacing=4;treeFolding=1;treeMoving=1;newEdgeStyle={&quot;edgeStyle&quot;:&quot;entityRelationEdgeStyle&quot;,&quot;startArrow&quot;:&quot;none&quot;,&quot;endArrow&quot;:&quot;none&quot;,&quot;segment&quot;:10,&quot;curved&quot;:1,&quot;sourcePerimeterSpacing&quot;:0,&quot;targetPerimeterSpacing&quot;:0};" vertex="1" parent="1">
          <mxGeometry x="414" y="360" width="70" height="30" as="geometry" />
        </mxCell>
        <mxCell id="KjZQPtOGRM4tuQie00Dk-13" value="" style="edgeStyle=entityRelationEdgeStyle;startArrow=none;endArrow=none;segment=10;curved=1;sourcePerimeterSpacing=0;targetPerimeterSpacing=0;rounded=0;exitX=1;exitY=0.5;exitDx=0;exitDy=0;" edge="1" target="KjZQPtOGRM4tuQie00Dk-12" parent="1" source="KjZQPtOGRM4tuQie00Dk-1">
          <mxGeometry relative="1" as="geometry">
            <mxPoint x="400" y="420" as="sourcePoint" />
          </mxGeometry>
        </mxCell>
        <mxCell id="KjZQPtOGRM4tuQie00Dk-18" value="" style="edgeStyle=entityRelationEdgeStyle;rounded=0;orthogonalLoop=1;jettySize=auto;html=1;startArrow=none;endArrow=none;segment=10;curved=1;sourcePerimeterSpacing=0;targetPerimeterSpacing=0;exitX=1;exitY=0.5;exitDx=0;exitDy=0;" edge="1" parent="1" source="KjZQPtOGRM4tuQie00Dk-12" target="KjZQPtOGRM4tuQie00Dk-17">
          <mxGeometry relative="1" as="geometry" />
        </mxCell>
        <mxCell id="KjZQPtOGRM4tuQie00Dk-14" value="不要用水硕、水项目去骗HR" style="whiteSpace=wrap;html=1;shape=partialRectangle;top=0;left=0;bottom=1;right=0;points=[[0,1],[1,1]];fillColor=none;align=center;verticalAlign=bottom;routingCenterY=0.5;snapToPoint=1;recursiveResize=0;autosize=1;treeFolding=1;treeMoving=1;newEdgeStyle={&quot;edgeStyle&quot;:&quot;entityRelationEdgeStyle&quot;,&quot;startArrow&quot;:&quot;none&quot;,&quot;endArrow&quot;:&quot;none&quot;,&quot;segment&quot;:10,&quot;curved&quot;:1,&quot;sourcePerimeterSpacing&quot;:0,&quot;targetPerimeterSpacing&quot;:0};" vertex="1" parent="1">
          <mxGeometry x="560" y="320" width="190" height="30" as="geometry" />
        </mxCell>
        <mxCell id="KjZQPtOGRM4tuQie00Dk-15" value="" style="edgeStyle=entityRelationEdgeStyle;startArrow=none;endArrow=none;segment=10;curved=1;sourcePerimeterSpacing=0;targetPerimeterSpacing=0;rounded=0;exitX=1;exitY=0.5;exitDx=0;exitDy=0;" edge="1" target="KjZQPtOGRM4tuQie00Dk-14" parent="1" source="KjZQPtOGRM4tuQie00Dk-12">
          <mxGeometry relative="1" as="geometry">
            <mxPoint x="500" y="415.4999999999998" as="sourcePoint" />
          </mxGeometry>
        </mxCell>
        <mxCell id="KjZQPtOGRM4tuQie00Dk-21" value="" style="edgeStyle=entityRelationEdgeStyle;rounded=0;orthogonalLoop=1;jettySize=auto;html=1;startArrow=none;endArrow=none;segment=10;curved=1;sourcePerimeterSpacing=0;targetPerimeterSpacing=0;" edge="1" parent="1" target="KjZQPtOGRM4tuQie00Dk-20">
          <mxGeometry relative="1" as="geometry">
            <mxPoint x="484" y="375" as="sourcePoint" />
          </mxGeometry>
        </mxCell>
        <mxCell id="KjZQPtOGRM4tuQie00Dk-17" value="不要写paper，HR能看懂的是学校、专业、GPA、github开源、实习、项目" style="whiteSpace=wrap;html=1;shape=partialRectangle;top=0;left=0;bottom=1;right=0;points=[[0,1],[1,1]];fillColor=none;align=center;verticalAlign=bottom;routingCenterY=0.5;snapToPoint=1;recursiveResize=0;autosize=1;treeFolding=1;treeMoving=1;newEdgeStyle={&quot;edgeStyle&quot;:&quot;entityRelationEdgeStyle&quot;,&quot;startArrow&quot;:&quot;none&quot;,&quot;endArrow&quot;:&quot;none&quot;,&quot;segment&quot;:10,&quot;curved&quot;:1,&quot;sourcePerimeterSpacing&quot;:0,&quot;targetPerimeterSpacing&quot;:0};" vertex="1" parent="1">
          <mxGeometry x="560" y="370" width="430" height="30" as="geometry" />
        </mxCell>
        <mxCell id="KjZQPtOGRM4tuQie00Dk-23" value="" style="edgeStyle=entityRelationEdgeStyle;rounded=0;orthogonalLoop=1;jettySize=auto;html=1;startArrow=none;endArrow=none;segment=10;curved=1;sourcePerimeterSpacing=0;targetPerimeterSpacing=0;exitX=1;exitY=0.5;exitDx=0;exitDy=0;" edge="1" parent="1" source="KjZQPtOGRM4tuQie00Dk-12" target="KjZQPtOGRM4tuQie00Dk-22">
          <mxGeometry relative="1" as="geometry">
            <Array as="points">
              <mxPoint x="490" y="390" />
              <mxPoint x="490" y="390" />
            </Array>
          </mxGeometry>
        </mxCell>
        <mxCell id="KjZQPtOGRM4tuQie00Dk-20" value="HR认知有限，最熟悉本国、本地区最好的学校&lt;span style=&quot;color: rgba(0, 0, 0, 0); font-family: monospace; font-size: 0px; text-align: start; text-wrap-mode: nowrap;&quot;&gt;%3CmxGraphModel%3E%3Croot%3E%3CmxCell%20id%3D%220%22%2F%3E%3CmxCell%20id%3D%221%22%20parent%3D%220%22%2F%3E%3CmxCell%20id%3D%222%22%20value%3D%22%E4%B8%8D%E8%A6%81%E5%86%99paper%EF%BC%8CHR%E8%83%BD%E7%9C%8B%E6%87%82%E7%9A%84%E6%98%AF%E5%AD%A6%E6%A0%A1%E3%80%81%E4%B8%93%E4%B8%9A%E3%80%81GPA%E3%80%81github%E5%BC%80%E6%BA%90%E3%80%81%E5%AE%9E%E4%B9%A0%E3%80%81%E9%A1%B9%E7%9B%AE%22%20style%3D%22whiteSpace%3Dwrap%3Bhtml%3D1%3Bshape%3DpartialRectangle%3Btop%3D0%3Bleft%3D0%3Bbottom%3D1%3Bright%3D0%3Bpoints%3D%5B%5B0%2C1%5D%2C%5B1%2C1%5D%5D%3BfillColor%3Dnone%3Balign%3Dcenter%3BverticalAlign%3Dbottom%3BroutingCenterY%3D0.5%3BsnapToPoint%3D1%3BrecursiveResize%3D0%3Bautosize%3D1%3BtreeFolding%3D1%3BtreeMoving%3D1%3BnewEdgeStyle%3D%7B%26quot%3BedgeStyle%26quot%3B%3A%26quot%3BentityRelationEdgeStyle%26quot%3B%2C%26quot%3BstartArrow%26quot%3B%3A%26quot%3Bnone%26quot%3B%2C%26quot%3BendArrow%26quot%3B%3A%26quot%3Bnone%26quot%3B%2C%26quot%3Bsegment%26quot%3B%3A10%2C%26quot%3Bcurved%26quot%3B%3A1%2C%26quot%3BsourcePerimeterSpacing%26quot%3B%3A0%2C%26quot%3BtargetPerimeterSpacing%26quot%3B%3A0%7D%3B%22%20vertex%3D%221%22%20parent%3D%221%22%3E%3CmxGeometry%20x%3D%22525%22%20y%3D%22370%22%20width%3D%22430%22%20height%3D%2230%22%20as%3D%22geometry%22%2F%3E%3C%2FmxCell%3E%3C%2Froot%3E%3C%2FmxGraphModel%3E&lt;/span&gt;" style="whiteSpace=wrap;html=1;shape=partialRectangle;top=0;left=0;bottom=1;right=0;points=[[0,1],[1,1]];fillColor=none;align=center;verticalAlign=bottom;routingCenterY=0.5;snapToPoint=1;recursiveResize=0;autosize=1;treeFolding=1;treeMoving=1;newEdgeStyle={&quot;edgeStyle&quot;:&quot;entityRelationEdgeStyle&quot;,&quot;startArrow&quot;:&quot;none&quot;,&quot;endArrow&quot;:&quot;none&quot;,&quot;segment&quot;:10,&quot;curved&quot;:1,&quot;sourcePerimeterSpacing&quot;:0,&quot;targetPerimeterSpacing&quot;:0};" vertex="1" parent="1">
          <mxGeometry x="560" y="410" width="290" height="30" as="geometry" />
        </mxCell>
        <mxCell id="KjZQPtOGRM4tuQie00Dk-22" value="要适度包装自己，在简历里写工作的impact，不要堆叠技术细节（没人看得懂）" style="whiteSpace=wrap;html=1;shape=partialRectangle;top=0;left=0;bottom=1;right=0;points=[[0,1],[1,1]];fillColor=none;align=center;verticalAlign=bottom;routingCenterY=0.5;snapToPoint=1;recursiveResize=0;autosize=1;treeFolding=1;treeMoving=1;newEdgeStyle={&quot;edgeStyle&quot;:&quot;entityRelationEdgeStyle&quot;,&quot;startArrow&quot;:&quot;none&quot;,&quot;endArrow&quot;:&quot;none&quot;,&quot;segment&quot;:10,&quot;curved&quot;:1,&quot;sourcePerimeterSpacing&quot;:0,&quot;targetPerimeterSpacing&quot;:0};" vertex="1" parent="1">
          <mxGeometry x="560" y="450" width="460" height="30" as="geometry" />
        </mxCell>
        <mxCell id="KjZQPtOGRM4tuQie00Dk-25" value="选学校" style="whiteSpace=wrap;html=1;rounded=1;arcSize=50;align=center;verticalAlign=middle;strokeWidth=1;autosize=1;spacing=4;treeFolding=1;treeMoving=1;newEdgeStyle={&quot;edgeStyle&quot;:&quot;entityRelationEdgeStyle&quot;,&quot;startArrow&quot;:&quot;none&quot;,&quot;endArrow&quot;:&quot;none&quot;,&quot;segment&quot;:10,&quot;curved&quot;:1,&quot;sourcePerimeterSpacing&quot;:0,&quot;targetPerimeterSpacing&quot;:0};" vertex="1" parent="1">
          <mxGeometry x="409" y="538" width="80" height="30" as="geometry" />
        </mxCell>
        <mxCell id="KjZQPtOGRM4tuQie00Dk-26" value="" style="edgeStyle=entityRelationEdgeStyle;startArrow=none;endArrow=none;segment=10;curved=1;sourcePerimeterSpacing=0;targetPerimeterSpacing=0;rounded=0;exitX=1;exitY=0.5;exitDx=0;exitDy=0;" edge="1" target="KjZQPtOGRM4tuQie00Dk-25" parent="1" source="KjZQPtOGRM4tuQie00Dk-1">
          <mxGeometry relative="1" as="geometry">
            <mxPoint x="369" y="580" as="sourcePoint" />
          </mxGeometry>
        </mxCell>
        <mxCell id="KjZQPtOGRM4tuQie00Dk-30" value="" style="edgeStyle=entityRelationEdgeStyle;rounded=0;orthogonalLoop=1;jettySize=auto;html=1;startArrow=none;endArrow=none;segment=10;curved=1;sourcePerimeterSpacing=0;targetPerimeterSpacing=0;exitX=1;exitY=0.5;exitDx=0;exitDy=0;" edge="1" parent="1" source="KjZQPtOGRM4tuQie00Dk-25" target="KjZQPtOGRM4tuQie00Dk-29">
          <mxGeometry relative="1" as="geometry" />
        </mxCell>
        <mxCell id="KjZQPtOGRM4tuQie00Dk-27" value="认准“”计算机科学与技术、软件工程、或者Computer sciense" style="whiteSpace=wrap;html=1;shape=partialRectangle;top=0;left=0;bottom=1;right=0;points=[[0,1],[1,1]];fillColor=none;align=center;verticalAlign=bottom;routingCenterY=0.5;snapToPoint=1;recursiveResize=0;autosize=1;treeFolding=1;treeMoving=1;newEdgeStyle={&quot;edgeStyle&quot;:&quot;entityRelationEdgeStyle&quot;,&quot;startArrow&quot;:&quot;none&quot;,&quot;endArrow&quot;:&quot;none&quot;,&quot;segment&quot;:10,&quot;curved&quot;:1,&quot;sourcePerimeterSpacing&quot;:0,&quot;targetPerimeterSpacing&quot;:0};" vertex="1" parent="1">
          <mxGeometry x="550" y="500" width="360" height="30" as="geometry" />
        </mxCell>
        <mxCell id="KjZQPtOGRM4tuQie00Dk-28" value="" style="edgeStyle=entityRelationEdgeStyle;startArrow=none;endArrow=none;segment=10;curved=1;sourcePerimeterSpacing=0;targetPerimeterSpacing=0;rounded=0;exitX=1;exitY=0.5;exitDx=0;exitDy=0;" edge="1" target="KjZQPtOGRM4tuQie00Dk-27" parent="1" source="KjZQPtOGRM4tuQie00Dk-25">
          <mxGeometry relative="1" as="geometry">
            <mxPoint x="520" y="558" as="sourcePoint" />
          </mxGeometry>
        </mxCell>
        <mxCell id="KjZQPtOGRM4tuQie00Dk-32" value="" style="edgeStyle=entityRelationEdgeStyle;rounded=0;orthogonalLoop=1;jettySize=auto;html=1;startArrow=none;endArrow=none;segment=10;curved=1;sourcePerimeterSpacing=0;targetPerimeterSpacing=0;exitX=1;exitY=0.5;exitDx=0;exitDy=0;" edge="1" parent="1" source="KjZQPtOGRM4tuQie00Dk-25" target="KjZQPtOGRM4tuQie00Dk-31">
          <mxGeometry relative="1" as="geometry" />
        </mxCell>
        <mxCell id="KjZQPtOGRM4tuQie00Dk-29" value="专业大于一切，不要让HR猜你的专业" style="whiteSpace=wrap;html=1;shape=partialRectangle;top=0;left=0;bottom=1;right=0;points=[[0,1],[1,1]];fillColor=none;align=center;verticalAlign=bottom;routingCenterY=0.5;snapToPoint=1;recursiveResize=0;autosize=1;treeFolding=1;treeMoving=1;newEdgeStyle={&quot;edgeStyle&quot;:&quot;entityRelationEdgeStyle&quot;,&quot;startArrow&quot;:&quot;none&quot;,&quot;endArrow&quot;:&quot;none&quot;,&quot;segment&quot;:10,&quot;curved&quot;:1,&quot;sourcePerimeterSpacing&quot;:0,&quot;targetPerimeterSpacing&quot;:0};" vertex="1" parent="1">
          <mxGeometry x="555" y="538" width="240" height="30" as="geometry" />
        </mxCell>
        <mxCell id="KjZQPtOGRM4tuQie00Dk-34" value="" style="edgeStyle=entityRelationEdgeStyle;rounded=0;orthogonalLoop=1;jettySize=auto;html=1;startArrow=none;endArrow=none;segment=10;curved=1;sourcePerimeterSpacing=0;targetPerimeterSpacing=0;exitX=1;exitY=0.25;exitDx=0;exitDy=0;" edge="1" parent="1" source="KjZQPtOGRM4tuQie00Dk-25" target="KjZQPtOGRM4tuQie00Dk-33">
          <mxGeometry relative="1" as="geometry" />
        </mxCell>
        <mxCell id="KjZQPtOGRM4tuQie00Dk-31" value="半李鬼专业：信息安全、大数据、信息系统" style="whiteSpace=wrap;html=1;shape=partialRectangle;top=0;left=0;bottom=1;right=0;points=[[0,1],[1,1]];fillColor=none;align=center;verticalAlign=bottom;routingCenterY=0.5;snapToPoint=1;recursiveResize=0;autosize=1;treeFolding=1;treeMoving=1;newEdgeStyle={&quot;edgeStyle&quot;:&quot;entityRelationEdgeStyle&quot;,&quot;startArrow&quot;:&quot;none&quot;,&quot;endArrow&quot;:&quot;none&quot;,&quot;segment&quot;:10,&quot;curved&quot;:1,&quot;sourcePerimeterSpacing&quot;:0,&quot;targetPerimeterSpacing&quot;:0};" vertex="1" parent="1">
          <mxGeometry x="560" y="570" width="270" height="30" as="geometry" />
        </mxCell>
        <mxCell id="KjZQPtOGRM4tuQie00Dk-33" value="纯李鬼专业：数学、物理、统计、电子、电气、商科" style="whiteSpace=wrap;html=1;shape=partialRectangle;top=0;left=0;bottom=1;right=0;points=[[0,1],[1,1]];fillColor=none;align=center;verticalAlign=bottom;routingCenterY=0.5;snapToPoint=1;recursiveResize=0;autosize=1;treeFolding=1;treeMoving=1;newEdgeStyle={&quot;edgeStyle&quot;:&quot;entityRelationEdgeStyle&quot;,&quot;startArrow&quot;:&quot;none&quot;,&quot;endArrow&quot;:&quot;none&quot;,&quot;segment&quot;:10,&quot;curved&quot;:1,&quot;sourcePerimeterSpacing&quot;:0,&quot;targetPerimeterSpacing&quot;:0};" vertex="1" parent="1">
          <mxGeometry x="555" y="610" width="320" height="30" as="geometry" />
        </mxCell>
        <mxCell id="KjZQPtOGRM4tuQie00Dk-35" value="实习" style="whiteSpace=wrap;html=1;rounded=1;arcSize=50;align=center;verticalAlign=middle;strokeWidth=1;autosize=1;spacing=4;treeFolding=1;treeMoving=1;newEdgeStyle={&quot;edgeStyle&quot;:&quot;entityRelationEdgeStyle&quot;,&quot;startArrow&quot;:&quot;none&quot;,&quot;endArrow&quot;:&quot;none&quot;,&quot;segment&quot;:10,&quot;curved&quot;:1,&quot;sourcePerimeterSpacing&quot;:0,&quot;targetPerimeterSpacing&quot;:0};" vertex="1" parent="1">
          <mxGeometry x="409" y="698" width="70" height="30" as="geometry" />
        </mxCell>
        <mxCell id="KjZQPtOGRM4tuQie00Dk-36" value="" style="edgeStyle=entityRelationEdgeStyle;startArrow=none;endArrow=none;segment=10;curved=1;sourcePerimeterSpacing=0;targetPerimeterSpacing=0;rounded=0;exitX=1;exitY=0.5;exitDx=0;exitDy=0;" edge="1" target="KjZQPtOGRM4tuQie00Dk-35" parent="1" source="KjZQPtOGRM4tuQie00Dk-1">
          <mxGeometry relative="1" as="geometry">
            <mxPoint x="364" y="740" as="sourcePoint" />
          </mxGeometry>
        </mxCell>
        <mxCell id="KjZQPtOGRM4tuQie00Dk-40" value="" style="edgeStyle=entityRelationEdgeStyle;rounded=0;orthogonalLoop=1;jettySize=auto;html=1;startArrow=none;endArrow=none;segment=10;curved=1;sourcePerimeterSpacing=0;targetPerimeterSpacing=0;exitX=1;exitY=0.5;exitDx=0;exitDy=0;" edge="1" parent="1" source="KjZQPtOGRM4tuQie00Dk-35" target="KjZQPtOGRM4tuQie00Dk-39">
          <mxGeometry relative="1" as="geometry">
            <Array as="points">
              <mxPoint x="480" y="710" />
            </Array>
          </mxGeometry>
        </mxCell>
        <mxCell id="KjZQPtOGRM4tuQie00Dk-37" value="暑假不要回家，找开发实习" style="whiteSpace=wrap;html=1;shape=partialRectangle;top=0;left=0;bottom=1;right=0;points=[[0,1],[1,1]];fillColor=none;align=center;verticalAlign=bottom;routingCenterY=0.5;snapToPoint=1;recursiveResize=0;autosize=1;treeFolding=1;treeMoving=1;newEdgeStyle={&quot;edgeStyle&quot;:&quot;entityRelationEdgeStyle&quot;,&quot;startArrow&quot;:&quot;none&quot;,&quot;endArrow&quot;:&quot;none&quot;,&quot;segment&quot;:10,&quot;curved&quot;:1,&quot;sourcePerimeterSpacing&quot;:0,&quot;targetPerimeterSpacing&quot;:0};" vertex="1" parent="1">
          <mxGeometry x="530" y="650" width="180" height="30" as="geometry" />
        </mxCell>
        <mxCell id="KjZQPtOGRM4tuQie00Dk-38" value="" style="edgeStyle=entityRelationEdgeStyle;startArrow=none;endArrow=none;segment=10;curved=1;sourcePerimeterSpacing=0;targetPerimeterSpacing=0;rounded=0;exitX=1;exitY=0.75;exitDx=0;exitDy=0;" edge="1" target="KjZQPtOGRM4tuQie00Dk-37" parent="1">
          <mxGeometry relative="1" as="geometry">
            <mxPoint x="484" y="710.5000000000002" as="sourcePoint" />
          </mxGeometry>
        </mxCell>
        <mxCell id="KjZQPtOGRM4tuQie00Dk-42" value="" style="edgeStyle=entityRelationEdgeStyle;rounded=0;orthogonalLoop=1;jettySize=auto;html=1;startArrow=none;endArrow=none;segment=10;curved=1;sourcePerimeterSpacing=0;targetPerimeterSpacing=0;" edge="1" parent="1" target="KjZQPtOGRM4tuQie00Dk-41">
          <mxGeometry relative="1" as="geometry">
            <mxPoint x="480" y="710" as="sourcePoint" />
          </mxGeometry>
        </mxCell>
        <mxCell id="KjZQPtOGRM4tuQie00Dk-39" value="学习基本的开发流程（代码，git、部署）" style="whiteSpace=wrap;html=1;shape=partialRectangle;top=0;left=0;bottom=1;right=0;points=[[0,1],[1,1]];fillColor=none;align=center;verticalAlign=bottom;routingCenterY=0.5;snapToPoint=1;recursiveResize=0;autosize=1;treeFolding=1;treeMoving=1;newEdgeStyle={&quot;edgeStyle&quot;:&quot;entityRelationEdgeStyle&quot;,&quot;startArrow&quot;:&quot;none&quot;,&quot;endArrow&quot;:&quot;none&quot;,&quot;segment&quot;:10,&quot;curved&quot;:1,&quot;sourcePerimeterSpacing&quot;:0,&quot;targetPerimeterSpacing&quot;:0};" vertex="1" parent="1">
          <mxGeometry x="535" y="690" width="260" height="30" as="geometry" />
        </mxCell>
        <mxCell id="KjZQPtOGRM4tuQie00Dk-41" value="观察企业如何运作（如何赚钱、如何跑通商业模式、如何管理）" style="whiteSpace=wrap;html=1;shape=partialRectangle;top=0;left=0;bottom=1;right=0;points=[[0,1],[1,1]];fillColor=none;align=center;verticalAlign=bottom;routingCenterY=0.5;snapToPoint=1;recursiveResize=0;autosize=1;treeFolding=1;treeMoving=1;newEdgeStyle={&quot;edgeStyle&quot;:&quot;entityRelationEdgeStyle&quot;,&quot;startArrow&quot;:&quot;none&quot;,&quot;endArrow&quot;:&quot;none&quot;,&quot;segment&quot;:10,&quot;curved&quot;:1,&quot;sourcePerimeterSpacing&quot;:0,&quot;targetPerimeterSpacing&quot;:0};" vertex="1" parent="1">
          <mxGeometry x="540" y="728" width="380" height="30" as="geometry" />
        </mxCell>
        <mxCell id="KjZQPtOGRM4tuQie00Dk-44" value="做开源" style="whiteSpace=wrap;html=1;rounded=1;arcSize=50;align=center;verticalAlign=middle;strokeWidth=1;autosize=1;spacing=4;treeFolding=1;treeMoving=1;newEdgeStyle={&quot;edgeStyle&quot;:&quot;entityRelationEdgeStyle&quot;,&quot;startArrow&quot;:&quot;none&quot;,&quot;endArrow&quot;:&quot;none&quot;,&quot;segment&quot;:10,&quot;curved&quot;:1,&quot;sourcePerimeterSpacing&quot;:0,&quot;targetPerimeterSpacing&quot;:0};" vertex="1" parent="1">
          <mxGeometry x="404" y="830" width="80" height="30" as="geometry" />
        </mxCell>
        <mxCell id="KjZQPtOGRM4tuQie00Dk-45" value="" style="edgeStyle=entityRelationEdgeStyle;startArrow=none;endArrow=none;segment=10;curved=1;sourcePerimeterSpacing=0;targetPerimeterSpacing=0;rounded=0;exitX=1;exitY=0.5;exitDx=0;exitDy=0;" edge="1" target="KjZQPtOGRM4tuQie00Dk-44" parent="1" source="KjZQPtOGRM4tuQie00Dk-1">
          <mxGeometry relative="1" as="geometry">
            <mxPoint x="364" y="840" as="sourcePoint" />
          </mxGeometry>
        </mxCell>
        <mxCell id="KjZQPtOGRM4tuQie00Dk-49" value="" style="edgeStyle=entityRelationEdgeStyle;rounded=0;orthogonalLoop=1;jettySize=auto;html=1;startArrow=none;endArrow=none;segment=10;curved=1;sourcePerimeterSpacing=0;targetPerimeterSpacing=0;exitX=1;exitY=0.5;exitDx=0;exitDy=0;" edge="1" parent="1" source="KjZQPtOGRM4tuQie00Dk-44" target="KjZQPtOGRM4tuQie00Dk-48">
          <mxGeometry relative="1" as="geometry" />
        </mxCell>
        <mxCell id="KjZQPtOGRM4tuQie00Dk-46" value="绝大多数大中小厂项目，都是糊业务逻辑" style="whiteSpace=wrap;html=1;shape=partialRectangle;top=0;left=0;bottom=1;right=0;points=[[0,1],[1,1]];fillColor=none;align=center;verticalAlign=bottom;routingCenterY=0.5;snapToPoint=1;recursiveResize=0;autosize=1;treeFolding=1;treeMoving=1;newEdgeStyle={&quot;edgeStyle&quot;:&quot;entityRelationEdgeStyle&quot;,&quot;startArrow&quot;:&quot;none&quot;,&quot;endArrow&quot;:&quot;none&quot;,&quot;segment&quot;:10,&quot;curved&quot;:1,&quot;sourcePerimeterSpacing&quot;:0,&quot;targetPerimeterSpacing&quot;:0};" vertex="1" parent="1">
          <mxGeometry x="540" y="780" width="260" height="30" as="geometry" />
        </mxCell>
        <mxCell id="KjZQPtOGRM4tuQie00Dk-47" value="" style="edgeStyle=entityRelationEdgeStyle;startArrow=none;endArrow=none;segment=10;curved=1;sourcePerimeterSpacing=0;targetPerimeterSpacing=0;rounded=0;exitX=1;exitY=0.5;exitDx=0;exitDy=0;" edge="1" target="KjZQPtOGRM4tuQie00Dk-46" parent="1" source="KjZQPtOGRM4tuQie00Dk-44">
          <mxGeometry relative="1" as="geometry">
            <mxPoint x="540" y="838" as="sourcePoint" />
          </mxGeometry>
        </mxCell>
        <mxCell id="KjZQPtOGRM4tuQie00Dk-48" value="好的开源，github star才是王道，真正的技术" style="whiteSpace=wrap;html=1;shape=partialRectangle;top=0;left=0;bottom=1;right=0;points=[[0,1],[1,1]];fillColor=none;align=center;verticalAlign=bottom;routingCenterY=0.5;snapToPoint=1;recursiveResize=0;autosize=1;treeFolding=1;treeMoving=1;newEdgeStyle={&quot;edgeStyle&quot;:&quot;entityRelationEdgeStyle&quot;,&quot;startArrow&quot;:&quot;none&quot;,&quot;endArrow&quot;:&quot;none&quot;,&quot;segment&quot;:10,&quot;curved&quot;:1,&quot;sourcePerimeterSpacing&quot;:0,&quot;targetPerimeterSpacing&quot;:0};" vertex="1" parent="1">
          <mxGeometry x="540" y="820" width="280" height="30" as="geometry" />
        </mxCell>
        <mxCell id="KjZQPtOGRM4tuQie00Dk-50" value="认真思考，找到一个自己感兴趣的开源项目" style="whiteSpace=wrap;html=1;shape=partialRectangle;top=0;left=0;bottom=1;right=0;points=[[0,1],[1,1]];fillColor=none;align=center;verticalAlign=bottom;routingCenterY=0.5;snapToPoint=1;recursiveResize=0;autosize=1;treeFolding=1;treeMoving=1;newEdgeStyle={&quot;edgeStyle&quot;:&quot;entityRelationEdgeStyle&quot;,&quot;startArrow&quot;:&quot;none&quot;,&quot;endArrow&quot;:&quot;none&quot;,&quot;segment&quot;:10,&quot;curved&quot;:1,&quot;sourcePerimeterSpacing&quot;:0,&quot;targetPerimeterSpacing&quot;:0};" vertex="1" parent="1">
          <mxGeometry x="557" y="860" width="270" height="30" as="geometry" />
        </mxCell>
        <mxCell id="KjZQPtOGRM4tuQie00Dk-51" value="" style="edgeStyle=entityRelationEdgeStyle;startArrow=none;endArrow=none;segment=10;curved=1;sourcePerimeterSpacing=0;targetPerimeterSpacing=0;rounded=0;" edge="1" target="KjZQPtOGRM4tuQie00Dk-50" parent="1">
          <mxGeometry relative="1" as="geometry">
            <mxPoint x="485" y="850" as="sourcePoint" />
          </mxGeometry>
        </mxCell>
        <mxCell id="KjZQPtOGRM4tuQie00Dk-55" value="" style="edgeStyle=entityRelationEdgeStyle;rounded=0;orthogonalLoop=1;jettySize=auto;html=1;startArrow=none;endArrow=none;segment=10;curved=1;sourcePerimeterSpacing=0;targetPerimeterSpacing=0;exitX=1;exitY=0.75;exitDx=0;exitDy=0;" edge="1" parent="1" source="KjZQPtOGRM4tuQie00Dk-44" target="KjZQPtOGRM4tuQie00Dk-54">
          <mxGeometry relative="1" as="geometry" />
        </mxCell>
        <mxCell id="KjZQPtOGRM4tuQie00Dk-52" value="大致看代码，看社区运营的方式" style="whiteSpace=wrap;html=1;shape=partialRectangle;top=0;left=0;bottom=1;right=0;points=[[0,1],[1,1]];fillColor=none;align=center;verticalAlign=bottom;routingCenterY=0.5;snapToPoint=1;recursiveResize=0;autosize=1;treeFolding=1;treeMoving=1;newEdgeStyle={&quot;edgeStyle&quot;:&quot;entityRelationEdgeStyle&quot;,&quot;startArrow&quot;:&quot;none&quot;,&quot;endArrow&quot;:&quot;none&quot;,&quot;segment&quot;:10,&quot;curved&quot;:1,&quot;sourcePerimeterSpacing&quot;:0,&quot;targetPerimeterSpacing&quot;:0};" vertex="1" parent="1">
          <mxGeometry x="565" y="890" width="210" height="30" as="geometry" />
        </mxCell>
        <mxCell id="KjZQPtOGRM4tuQie00Dk-53" value="" style="edgeStyle=entityRelationEdgeStyle;startArrow=none;endArrow=none;segment=10;curved=1;sourcePerimeterSpacing=0;targetPerimeterSpacing=0;rounded=0;exitX=1;exitY=0.75;exitDx=0;exitDy=0;" edge="1" target="KjZQPtOGRM4tuQie00Dk-52" parent="1" source="KjZQPtOGRM4tuQie00Dk-44">
          <mxGeometry relative="1" as="geometry">
            <mxPoint x="530" y="940" as="sourcePoint" />
          </mxGeometry>
        </mxCell>
        <mxCell id="KjZQPtOGRM4tuQie00Dk-57" value="" style="edgeStyle=entityRelationEdgeStyle;rounded=0;orthogonalLoop=1;jettySize=auto;html=1;startArrow=none;endArrow=none;segment=10;curved=1;sourcePerimeterSpacing=0;targetPerimeterSpacing=0;exitX=1;exitY=0.75;exitDx=0;exitDy=0;" edge="1" parent="1" source="KjZQPtOGRM4tuQie00Dk-44" target="KjZQPtOGRM4tuQie00Dk-56">
          <mxGeometry relative="1" as="geometry" />
        </mxCell>
        <mxCell id="KjZQPtOGRM4tuQie00Dk-54" value="从参与Roadmap、meeting、issue讨论，加入节奏" style="whiteSpace=wrap;html=1;shape=partialRectangle;top=0;left=0;bottom=1;right=0;points=[[0,1],[1,1]];fillColor=none;align=center;verticalAlign=bottom;routingCenterY=0.5;snapToPoint=1;recursiveResize=0;autosize=1;treeFolding=1;treeMoving=1;newEdgeStyle={&quot;edgeStyle&quot;:&quot;entityRelationEdgeStyle&quot;,&quot;startArrow&quot;:&quot;none&quot;,&quot;endArrow&quot;:&quot;none&quot;,&quot;segment&quot;:10,&quot;curved&quot;:1,&quot;sourcePerimeterSpacing&quot;:0,&quot;targetPerimeterSpacing&quot;:0};" vertex="1" parent="1">
          <mxGeometry x="557" y="930" width="310" height="30" as="geometry" />
        </mxCell>
        <mxCell id="KjZQPtOGRM4tuQie00Dk-56" value="可以从测试、文档、设计、小issue等，最卑微的工作做起" style="whiteSpace=wrap;html=1;shape=partialRectangle;top=0;left=0;bottom=1;right=0;points=[[0,1],[1,1]];fillColor=none;align=center;verticalAlign=bottom;routingCenterY=0.5;snapToPoint=1;recursiveResize=0;autosize=1;treeFolding=1;treeMoving=1;newEdgeStyle={&quot;edgeStyle&quot;:&quot;entityRelationEdgeStyle&quot;,&quot;startArrow&quot;:&quot;none&quot;,&quot;endArrow&quot;:&quot;none&quot;,&quot;segment&quot;:10,&quot;curved&quot;:1,&quot;sourcePerimeterSpacing&quot;:0,&quot;targetPerimeterSpacing&quot;:0};" vertex="1" parent="1">
          <mxGeometry x="542" y="970" width="340" height="30" as="geometry" />
        </mxCell>
        <mxCell id="KjZQPtOGRM4tuQie00Dk-58" value="不断提高影响力，抢夺credits、主动承担责任和讨论" style="whiteSpace=wrap;html=1;shape=partialRectangle;top=0;left=0;bottom=1;right=0;points=[[0,1],[1,1]];fillColor=none;align=center;verticalAlign=bottom;routingCenterY=0.5;snapToPoint=1;recursiveResize=0;autosize=1;treeFolding=1;treeMoving=1;newEdgeStyle={&quot;edgeStyle&quot;:&quot;entityRelationEdgeStyle&quot;,&quot;startArrow&quot;:&quot;none&quot;,&quot;endArrow&quot;:&quot;none&quot;,&quot;segment&quot;:10,&quot;curved&quot;:1,&quot;sourcePerimeterSpacing&quot;:0,&quot;targetPerimeterSpacing&quot;:0};" vertex="1" parent="1">
          <mxGeometry x="550" y="1010" width="320" height="30" as="geometry" />
        </mxCell>
        <mxCell id="KjZQPtOGRM4tuQie00Dk-59" value="" style="edgeStyle=entityRelationEdgeStyle;startArrow=none;endArrow=none;segment=10;curved=1;sourcePerimeterSpacing=0;targetPerimeterSpacing=0;rounded=0;exitX=1;exitY=0.75;exitDx=0;exitDy=0;" edge="1" target="KjZQPtOGRM4tuQie00Dk-58" parent="1" source="KjZQPtOGRM4tuQie00Dk-44">
          <mxGeometry relative="1" as="geometry">
            <mxPoint x="525" y="1060" as="sourcePoint" />
          </mxGeometry>
        </mxCell>
        <mxCell id="KjZQPtOGRM4tuQie00Dk-60" value="有不懂的问题，一定要问，所有人都愿意回答你" style="whiteSpace=wrap;html=1;shape=partialRectangle;top=0;left=0;bottom=1;right=0;points=[[0,1],[1,1]];fillColor=none;align=center;verticalAlign=bottom;routingCenterY=0.5;snapToPoint=1;recursiveResize=0;autosize=1;treeFolding=1;treeMoving=1;newEdgeStyle={&quot;edgeStyle&quot;:&quot;entityRelationEdgeStyle&quot;,&quot;startArrow&quot;:&quot;none&quot;,&quot;endArrow&quot;:&quot;none&quot;,&quot;segment&quot;:10,&quot;curved&quot;:1,&quot;sourcePerimeterSpacing&quot;:0,&quot;targetPerimeterSpacing&quot;:0};" vertex="1" parent="1">
          <mxGeometry x="557" y="1050" width="290" height="30" as="geometry" />
        </mxCell>
        <mxCell id="KjZQPtOGRM4tuQie00Dk-61" value="" style="edgeStyle=entityRelationEdgeStyle;startArrow=none;endArrow=none;segment=10;curved=1;sourcePerimeterSpacing=0;targetPerimeterSpacing=0;rounded=0;exitX=1;exitY=0.75;exitDx=0;exitDy=0;" edge="1" target="KjZQPtOGRM4tuQie00Dk-60" parent="1" source="KjZQPtOGRM4tuQie00Dk-44">
          <mxGeometry relative="1" as="geometry">
            <mxPoint x="525" y="1100" as="sourcePoint" />
          </mxGeometry>
        </mxCell>
        <mxCell id="KjZQPtOGRM4tuQie00Dk-62" value="如何判断未来发展方向" style="whiteSpace=wrap;html=1;rounded=1;arcSize=50;align=center;verticalAlign=middle;strokeWidth=1;autosize=1;spacing=4;treeFolding=1;treeMoving=1;newEdgeStyle={&quot;edgeStyle&quot;:&quot;entityRelationEdgeStyle&quot;,&quot;startArrow&quot;:&quot;none&quot;,&quot;endArrow&quot;:&quot;none&quot;,&quot;segment&quot;:10,&quot;curved&quot;:1,&quot;sourcePerimeterSpacing&quot;:0,&quot;targetPerimeterSpacing&quot;:0};" vertex="1" parent="1">
          <mxGeometry x="324" y="1169" width="160" height="30" as="geometry" />
        </mxCell>
        <mxCell id="KjZQPtOGRM4tuQie00Dk-63" value="" style="edgeStyle=entityRelationEdgeStyle;startArrow=none;endArrow=none;segment=10;curved=1;sourcePerimeterSpacing=0;targetPerimeterSpacing=0;rounded=0;exitX=1;exitY=0.5;exitDx=0;exitDy=0;" edge="1" target="KjZQPtOGRM4tuQie00Dk-62" parent="1" source="KjZQPtOGRM4tuQie00Dk-1">
          <mxGeometry relative="1" as="geometry">
            <mxPoint x="350" y="360" as="sourcePoint" />
          </mxGeometry>
        </mxCell>
        <mxCell id="KjZQPtOGRM4tuQie00Dk-64" value="钱多的一定是好工作" style="whiteSpace=wrap;html=1;shape=partialRectangle;top=0;left=0;bottom=1;right=0;points=[[0,1],[1,1]];fillColor=none;align=center;verticalAlign=bottom;routingCenterY=0.5;snapToPoint=1;recursiveResize=0;autosize=1;treeFolding=1;treeMoving=1;newEdgeStyle={&quot;edgeStyle&quot;:&quot;entityRelationEdgeStyle&quot;,&quot;startArrow&quot;:&quot;none&quot;,&quot;endArrow&quot;:&quot;none&quot;,&quot;segment&quot;:10,&quot;curved&quot;:1,&quot;sourcePerimeterSpacing&quot;:0,&quot;targetPerimeterSpacing&quot;:0};" vertex="1" parent="1">
          <mxGeometry x="525" y="1120" width="150" height="30" as="geometry" />
        </mxCell>
        <mxCell id="KjZQPtOGRM4tuQie00Dk-65" value="" style="edgeStyle=entityRelationEdgeStyle;startArrow=none;endArrow=none;segment=10;curved=1;sourcePerimeterSpacing=0;targetPerimeterSpacing=0;rounded=0;exitX=1;exitY=0.25;exitDx=0;exitDy=0;" edge="1" target="KjZQPtOGRM4tuQie00Dk-64" parent="1" source="KjZQPtOGRM4tuQie00Dk-62">
          <mxGeometry relative="1" as="geometry">
            <mxPoint x="520" y="1170" as="sourcePoint" />
          </mxGeometry>
        </mxCell>
        <mxCell id="KjZQPtOGRM4tuQie00Dk-69" value="" style="edgeStyle=entityRelationEdgeStyle;rounded=0;orthogonalLoop=1;jettySize=auto;html=1;startArrow=none;endArrow=none;segment=10;curved=1;sourcePerimeterSpacing=0;targetPerimeterSpacing=0;exitX=1;exitY=0.5;exitDx=0;exitDy=0;" edge="1" parent="1" source="KjZQPtOGRM4tuQie00Dk-62" target="KjZQPtOGRM4tuQie00Dk-68">
          <mxGeometry relative="1" as="geometry">
            <Array as="points">
              <mxPoint x="484" y="1184" />
            </Array>
          </mxGeometry>
        </mxCell>
        <mxCell id="KjZQPtOGRM4tuQie00Dk-66" value="看行业风口，看大厂财报，看市场规模和数据" style="whiteSpace=wrap;html=1;shape=partialRectangle;top=0;left=0;bottom=1;right=0;points=[[0,1],[1,1]];fillColor=none;align=center;verticalAlign=bottom;routingCenterY=0.5;snapToPoint=1;recursiveResize=0;autosize=1;treeFolding=1;treeMoving=1;newEdgeStyle={&quot;edgeStyle&quot;:&quot;entityRelationEdgeStyle&quot;,&quot;startArrow&quot;:&quot;none&quot;,&quot;endArrow&quot;:&quot;none&quot;,&quot;segment&quot;:10,&quot;curved&quot;:1,&quot;sourcePerimeterSpacing&quot;:0,&quot;targetPerimeterSpacing&quot;:0};" vertex="1" parent="1">
          <mxGeometry x="525" y="1169" width="280" height="30" as="geometry" />
        </mxCell>
        <mxCell id="KjZQPtOGRM4tuQie00Dk-67" value="" style="edgeStyle=entityRelationEdgeStyle;startArrow=none;endArrow=none;segment=10;curved=1;sourcePerimeterSpacing=0;targetPerimeterSpacing=0;rounded=0;" edge="1" target="KjZQPtOGRM4tuQie00Dk-66" parent="1">
          <mxGeometry relative="1" as="geometry">
            <mxPoint x="490" y="1190" as="sourcePoint" />
          </mxGeometry>
        </mxCell>
        <mxCell id="KjZQPtOGRM4tuQie00Dk-68" value="看全球顶级VC投资的方向，看startup涌入的新领域" style="whiteSpace=wrap;html=1;shape=partialRectangle;top=0;left=0;bottom=1;right=0;points=[[0,1],[1,1]];fillColor=none;align=center;verticalAlign=bottom;routingCenterY=0.5;snapToPoint=1;recursiveResize=0;autosize=1;treeFolding=1;treeMoving=1;newEdgeStyle={&quot;edgeStyle&quot;:&quot;entityRelationEdgeStyle&quot;,&quot;startArrow&quot;:&quot;none&quot;,&quot;endArrow&quot;:&quot;none&quot;,&quot;segment&quot;:10,&quot;curved&quot;:1,&quot;sourcePerimeterSpacing&quot;:0,&quot;targetPerimeterSpacing&quot;:0};" vertex="1" parent="1">
          <mxGeometry x="505" y="1210" width="310" height="30" as="geometry" />
        </mxCell>
        <mxCell id="KjZQPtOGRM4tuQie00Dk-70" value="从第一性原理出发，思考商业模式本身，追踪学术热点，思考哪些技术和学术产生，有真正潜力成为商业革命的主力" style="whiteSpace=wrap;html=1;shape=partialRectangle;top=0;left=0;bottom=1;right=0;points=[[0,1],[1,1]];fillColor=none;align=center;verticalAlign=bottom;routingCenterY=0.5;snapToPoint=1;recursiveResize=0;autosize=1;treeFolding=1;treeMoving=1;newEdgeStyle={&quot;edgeStyle&quot;:&quot;entityRelationEdgeStyle&quot;,&quot;startArrow&quot;:&quot;none&quot;,&quot;endArrow&quot;:&quot;none&quot;,&quot;segment&quot;:10,&quot;curved&quot;:1,&quot;sourcePerimeterSpacing&quot;:0,&quot;targetPerimeterSpacing&quot;:0};" vertex="1" parent="1">
          <mxGeometry x="505" y="1260" width="650" height="30" as="geometry" />
        </mxCell>
        <mxCell id="KjZQPtOGRM4tuQie00Dk-71" value="" style="edgeStyle=entityRelationEdgeStyle;startArrow=none;endArrow=none;segment=10;curved=1;sourcePerimeterSpacing=0;targetPerimeterSpacing=0;rounded=0;exitX=1;exitY=0.25;exitDx=0;exitDy=0;" edge="1" target="KjZQPtOGRM4tuQie00Dk-70" parent="1" source="KjZQPtOGRM4tuQie00Dk-62">
          <mxGeometry relative="1" as="geometry">
            <mxPoint x="485" y="1310" as="sourcePoint" />
          </mxGeometry>
        </mxCell>
      </root>
    </mxGraphModel>
  </diagram>
</mxfile>
